<svg width="24" height="24" viewBox="0 0 24 24" fill="none" xmlns="http://www.w3.org/2000/svg">
<g clip-path="url(#clip0)">
<path d="M18.8089 7.61723H20.2152V11.188H22.6853V5.57812H16.3389V11.188H18.8089V7.61723Z" fill="black"/>
<path d="M17.7681 4.17202V3.15047C17.7681 2.18869 18.5505 1.40625 19.5123 1.40625C20.4741 1.40625 21.2565 2.18869 21.2565 3.15047V4.17202H22.6628V3.15047C22.6628 1.41328 21.2495 0 19.5123 0C17.7751 0 16.3618 1.41328 16.3618 3.15047V4.17202H17.7681Z" fill="black"/>
<path d="M14.9328 12.594V7.06548C13.5963 6.29008 12.0451 5.8457 10.392 5.8457C5.38688 5.8457 1.31494 9.91764 1.31494 14.9227C1.31494 17.7595 2.62332 20.2961 4.66796 21.9618V20.7763C4.66796 18.738 5.98969 17.0026 7.82114 16.3821C7.28653 15.7769 6.96108 14.9828 6.96108 14.1138C6.96108 12.222 8.50017 10.683 10.3919 10.683C12.2836 10.683 13.8227 12.222 13.8227 14.1138C13.8227 14.9828 13.4973 15.7769 12.9627 16.3821C14.7941 17.0026 16.1158 18.738 16.1158 20.7763V21.9618C18.1605 20.2961 19.4688 17.7595 19.4688 14.9227C19.4688 14.1179 19.363 13.3375 19.1653 12.594H14.9328Z" fill="black"/>
<path d="M10.3918 12.0898C9.27544 12.0898 8.36719 12.998 8.36719 14.1144C8.36719 15.2307 9.27544 16.139 10.3918 16.139C11.5081 16.139 12.4163 15.2307 12.4163 14.1144C12.4163 12.998 11.5081 12.0898 10.3918 12.0898Z" fill="black"/>
<path d="M14.7096 20.7767C14.7096 18.9947 13.2598 17.5449 11.4778 17.5449H9.30601C7.52397 17.5449 6.07422 18.9947 6.07422 20.7767V22.9057C7.35897 23.6034 8.82995 24 10.3919 24C11.9538 24 13.4248 23.6034 14.7095 22.9057V20.7767H14.7096Z" fill="black"/>
</g>
<defs>
<clipPath id="clip0">
<rect width="24" height="24" fill="white"/>
</clipPath>
</defs>
</svg>
